# xmcd
#
# Track frame offsets: 
#        150
#        18133
#        45420
#        59254
#        73986
#        92733
#        108241
#        128547
#        163668
#        185081
#        204921
#        235178
#
# Disc length: 3487 seconds
#
# Revision: 4
# Processed by: cddbd v1.5.2PL0 Copyright (c) Steve Scherf et al.
# Submitted via: ExactAudioCopy v0.99pb3
#
DISCID=990d9d0c
DTITLE=Kenny Neal And Billy Branch - Double Take
DYEAR=2004
DGENRE=Blues
TTITLE0=Going Down Slow
TTITLE1=The Son I Never Knew (Take 2)
TTITLE2=I Just Keep Loving Her
TTITLE3=My Babe
TTITLE4=Early One Morning
TTITLE5=Going To The Country
TTITLE6=Don't Start Me To Talking
TTITLE7=Mannish Boy
TTITLE8=Billy And Kenny's Stomp
TTITLE9=Baby Bee
TTITLE10=Northern Man Blues
TTITLE11=The Son I Never Knew (Take 1)
EXTD=YEAR: 2004
EXTT0=
EXTT1=
EXTT2=
EXTT3=
EXTT4=
EXTT5=
EXTT6=
EXTT7=
EXTT8=
EXTT9=
EXTT10=
EXTT11=
PLAYORDER=
